<svg fill="none" height="32" viewBox="0 0 32 32" width="32" xmlns="http://www.w3.org/2000/svg" xmlns:xlink="http://www.w3.org/1999/xlink"><linearGradient id="a" gradientUnits="userSpaceOnUse" x1="8" x2="24.5" y1="16" y2="16"><stop offset="0" stop-color="#8c42ac"/><stop offset="1" stop-color="#c36def"/></linearGradient><linearGradient id="b" gradientUnits="userSpaceOnUse" x1="0" x2="19" y1="16" y2="16"><stop offset="0" stop-color="#44176c"/><stop offset="1" stop-color="#621f9c"/></linearGradient><path d="m8 23h24v5c0 1.1046-.8954 2-2 2h-20c-1.10457 0-2-.8954-2-2z" fill="#5d29a1"/><path d="m8 16h24v7h-24z" fill="#7f32cc"/><path d="m8 9h24v7h-24z" fill="#9a40d6"/><path d="m10 2c-1.10457 0-2 .89543-2 2v24c0 1.1046.89543 2 2 2h14v-21h8v-5c0-1.10457-.8954-2-2-2z" fill="url(#a)"/><path d="m8 12c0-1.6569 1.34315-3 3-3h6c1.6569 0 3 1.3431 3 3v12c0 1.6569-1.3431 3-3 3h-9z" fill="#000" fill-opacity=".3"/><rect fill="url(#b)" height="18" rx="2" width="18" y="7"/><path d="m13 21v-10h-2.1107v5.8286l-3.9262-5.8286h-1.9631v10h2.08118v-6.0429l4.07382 6.0429z" fill="#fff"/></svg>